<svg width="27" height="27" viewBox="0 0 27 27" fill="none" xmlns="http://www.w3.org/2000/svg">
<path d="M1 22.875C1 21.2174 1.65848 19.6277 2.83058 18.4556C4.00268 17.2835 5.5924 16.625 7.25 16.625H19.75C21.4076 16.625 22.9973 17.2835 24.1694 18.4556C25.3415 19.6277 26 21.2174 26 22.875C26 23.7038 25.6708 24.4987 25.0847 25.0847C24.4987 25.6708 23.7038 26 22.875 26H4.125C3.2962 26 2.50134 25.6708 1.91529 25.0847C1.32924 24.4987 1 23.7038 1 22.875Z" stroke="white" stroke-width="2" stroke-linejoin="round"/>
<path d="M13.5001 10.375C16.0889 10.375 18.1876 8.27634 18.1876 5.6875C18.1876 3.09867 16.0889 1 13.5001 1C10.9112 1 8.81256 3.09867 8.81256 5.6875C8.81256 8.27634 10.9112 10.375 13.5001 10.375Z" stroke="white" stroke-width="2"/>
</svg>
