<svg width="27" height="27" viewBox="0 0 27 27" fill="none" xmlns="http://www.w3.org/2000/svg">
<path d="M1 1H3.67857L8.14286 19.75M8.14286 19.75H22.4286M8.14286 19.75C7.19566 19.75 6.28725 20.0792 5.61748 20.6653C4.9477 21.2513 4.57143 22.0462 4.57143 22.875C4.57143 23.7038 4.9477 24.4987 5.61748 25.0847C6.28725 25.6708 7.19566 26 8.14286 26C9.09006 26 9.99846 25.6708 10.6682 25.0847C11.338 24.4987 11.7143 23.7038 11.7143 22.875C11.7143 22.0462 11.338 21.2513 10.6682 20.6653C9.99846 20.0792 9.09006 19.75 8.14286 19.75ZM22.4286 19.75C21.4814 19.75 20.573 20.0792 19.9032 20.6653C19.2334 21.2513 18.8571 22.0462 18.8571 22.875C18.8571 23.7038 19.2334 24.4987 19.9032 25.0847C20.573 25.6708 21.4814 26 22.4286 26C23.3758 26 24.2842 25.6708 24.954 25.0847C25.6237 24.4987 26 23.7038 26 22.875C26 22.0462 25.6237 21.2513 24.954 20.6653C24.2842 20.0792 23.3758 19.75 22.4286 19.75ZM7.25 15.0625H23.7679L26 5.6875H5.12857" stroke="white" stroke-width="2" stroke-linecap="round" stroke-linejoin="round"/>
</svg>
