<svg width="18" height="18" viewBox="0 0 18 18" fill="none" xmlns="http://www.w3.org/2000/svg">
<path d="M9 4.37473C8.08602 4.37473 7.19257 4.6455 6.43262 5.1528C5.67267 5.66011 5.08037 6.38116 4.7306 7.22477C4.38084 8.06839 4.28932 8.99668 4.46763 9.89225C4.64594 10.7878 5.08606 11.6105 5.73234 12.2561C6.37862 12.9018 7.20204 13.3415 8.09846 13.5197C8.99487 13.6978 9.92404 13.6064 10.7684 13.2569C11.6129 12.9075 12.3346 12.3158 12.8424 11.5565C13.3501 10.7973 13.6212 9.90468 13.6212 8.99155C13.6227 8.38485 13.5041 7.78382 13.2724 7.22301C13.0407 6.6622 12.7004 6.15266 12.271 5.72365C11.8416 5.29464 11.3315 4.95463 10.7702 4.72314C10.2089 4.49165 9.60728 4.37324 9 4.37473ZM9 11.9981C8.4048 11.9981 7.82296 11.8218 7.32807 11.4914C6.83318 11.1611 6.44746 10.6915 6.21968 10.1421C5.99191 9.59274 5.93231 8.98822 6.04843 8.405C6.16455 7.82178 6.45117 7.28607 6.87204 6.86559C7.29291 6.44511 7.82913 6.15876 8.4129 6.04276C8.99666 5.92675 9.60175 5.98629 10.1516 6.21385C10.7015 6.44141 11.1715 6.82677 11.5022 7.32119C11.8329 7.81562 12.0094 8.39691 12.0094 8.99155C12.0094 9.78895 11.6923 10.5537 11.128 11.1175C10.5636 11.6814 9.79814 11.9981 9 11.9981ZM14.8948 4.1833C14.8948 4.40601 14.8287 4.62372 14.7049 4.8089C14.581 4.99408 14.405 5.13841 14.199 5.22364C13.9931 5.30886 13.7664 5.33116 13.5478 5.28771C13.3292 5.24427 13.1283 5.13702 12.9707 4.97954C12.8131 4.82206 12.7057 4.62141 12.6622 4.40298C12.6187 4.18455 12.6411 3.95813 12.7264 3.75237C12.8117 3.54661 12.9561 3.37075 13.1415 3.24702C13.3269 3.12328 13.5448 3.05724 13.7677 3.05724C14.0666 3.05724 14.3533 3.17588 14.5647 3.38706C14.7761 3.59823 14.8948 3.88465 14.8948 4.1833ZM17.9493 5.30935C17.9821 3.90947 17.4594 2.55344 16.4953 1.53707C15.4834 0.56155 14.1255 0.0269768 12.7195 0.0506725C11.2542 -0.0168908 6.74577 -0.0168908 5.28053 0.0506725C3.87976 0.0203694 2.52335 0.542197 1.5047 1.50328C0.540601 2.51965 0.0179368 3.87569 0.0507201 5.27557C-0.0169067 6.73944 -0.0169067 11.2437 0.0507201 12.7075C0.0179368 14.1074 0.540601 15.4635 1.5047 16.4798C2.52335 17.4409 3.87976 17.9627 5.28053 17.9324C6.76832 18.0225 11.2317 18.0225 12.7195 17.9324C14.1207 17.9652 15.478 17.443 16.4953 16.4798C17.4594 15.4635 17.9821 14.1074 17.9493 12.7075C18.0169 11.2437 18.0169 6.73944 17.9493 5.27557V5.30935ZM16.0332 14.3178C15.8802 14.7051 15.6491 15.0569 15.3544 15.3513C15.0597 15.6457 14.7076 15.8765 14.32 16.0294C12.5702 16.3828 10.7815 16.504 9 16.3897C7.22227 16.5042 5.4372 16.383 3.6913 16.0294C3.30364 15.8765 2.95155 15.6457 2.65684 15.3513C2.36214 15.0569 2.13112 14.7051 1.97808 14.3178C1.5047 13.1242 1.60614 10.309 1.60614 9.00282C1.60614 7.69659 1.5047 4.87019 1.97808 3.68783C2.1268 3.29672 2.35617 2.94121 2.65132 2.6444C2.94647 2.34759 3.3008 2.1161 3.6913 1.96497C5.4372 1.61136 7.22227 1.4902 9 1.60463C10.7815 1.49039 12.5702 1.61155 14.32 1.96497C14.7076 2.11786 15.0597 2.34867 15.3544 2.64309C15.6491 2.93752 15.8802 3.28928 16.0332 3.67657C16.5066 4.87019 16.3939 7.68533 16.3939 8.99155C16.3939 10.2978 16.5066 13.1242 16.0332 14.3065V14.3178Z" fill="white"/>
</svg>
