<svg width="18" height="18" viewBox="0 0 18 18" fill="none" xmlns="http://www.w3.org/2000/svg">
<path d="M2.16336 4.33411C3.35815 4.33411 4.32672 3.36388 4.32672 2.16705C4.32672 0.970223 3.35815 0 2.16336 0C0.96857 0 0 0.970223 0 2.16705C0 3.36388 0.96857 4.33411 2.16336 4.33411Z" fill="white"/>
<path d="M6.36947 5.97633V17.9991H10.096V12.0536C10.096 10.4847 10.3907 8.96544 12.3326 8.96544C14.2477 8.96544 14.2715 10.7591 14.2715 12.1526V18.0001H18V11.4068C18 8.16814 17.3039 5.6792 13.525 5.6792C11.7106 5.6792 10.4945 6.67656 9.99715 7.62044H9.94673V5.97633H6.36947ZM0.296631 5.97633H4.02912V17.9991H0.296631V5.97633Z" fill="white"/>
</svg>
