<svg width="18" height="18" viewBox="0 0 18 18" fill="none" xmlns="http://www.w3.org/2000/svg">
<path d="M15.3096 2.61005C14.4844 1.77915 13.5021 1.12051 12.4198 0.672445C11.3376 0.224375 10.177 -0.0041848 9.00563 5.80036e-05C7.43961 0.00158516 5.90147 0.414276 4.54526 1.1968C3.18906 1.97933 2.06237 3.10422 1.27806 4.45883C0.493737 5.81343 0.0793115 7.3502 0.0762809 8.91524C0.0732503 10.4803 0.481721 12.0186 1.26079 13.3763L0 18L4.72795 16.7625C6.03349 17.4884 7.50044 17.8752 8.99437 17.8875C11.3692 17.8876 13.648 16.9502 15.3346 15.2794C17.0212 13.6085 17.9792 11.3395 18 8.96628C17.9921 7.782 17.7503 6.61093 17.2887 5.5202C16.827 4.42946 16.1544 3.44052 15.3096 2.61005ZM9.00563 16.3463C7.67469 16.3471 6.36811 15.9896 5.22327 15.3113L4.9531 15.1425L2.15009 15.885L2.89306 13.1513L2.71295 12.87C1.75525 11.325 1.39783 9.48265 1.70839 7.69192C2.01895 5.90119 2.97592 4.28648 4.39802 3.15368C5.82011 2.02088 7.60855 1.44867 9.42454 1.54545C11.2405 1.64223 12.9579 2.40128 14.2514 3.6788C15.6653 5.06051 16.4747 6.94519 16.5028 8.92128C16.485 10.8967 15.6873 12.7851 14.2832 14.1757C12.8791 15.5662 10.9824 16.3463 9.00563 16.3463ZM13.0694 10.7888C12.8443 10.6763 11.7523 10.1363 11.5497 10.0688C11.3471 10.0013 11.1895 9.95628 11.0432 10.1813C10.8229 10.4829 10.5862 10.7721 10.334 11.0475C10.2101 11.205 10.075 11.2163 9.84991 11.0475C8.5663 10.5406 7.49684 9.60687 6.82176 8.40378C6.58537 8.01003 7.0469 8.03253 7.47467 7.18879C7.50625 7.12796 7.52273 7.06044 7.52273 6.99191C7.52273 6.92339 7.50625 6.85586 7.47467 6.79504C7.47467 6.68254 6.9681 5.58004 6.78799 5.14129C6.60788 4.70254 6.42777 4.77004 6.28143 4.75879H5.8424C5.72865 4.76054 5.61659 4.78653 5.5137 4.83503C5.41081 4.88354 5.31947 4.95343 5.24578 5.04004C4.99319 5.28549 4.79618 5.58219 4.66802 5.91016C4.53986 6.23812 4.48353 6.58973 4.50281 6.94129C4.5734 7.78287 4.89054 8.58502 5.41463 9.24753C6.37396 10.6828 7.68863 11.8455 9.23077 12.6225C10.0396 13.0944 10.9795 13.2917 11.9099 13.185C12.2198 13.1236 12.5132 12.9977 12.7711 12.8155C13.0291 12.6333 13.2458 12.3989 13.4071 12.1275C13.5566 11.7964 13.6037 11.4281 13.5422 11.07C13.4409 10.9575 13.2946 10.9013 13.0694 10.7888Z" fill="white"/>
</svg>
